<?xml version="1.0" standalone="no"?>
<!DOCTYPE svg PUBLIC "-//W3C//DTD SVG 20010904//EN"
 "http://www.w3.org/TR/2001/REC-SVG-20010904/DTD/svg10.dtd">
<svg version="1.0" xmlns="http://www.w3.org/2000/svg"
 width="2048.000000pt" height="2048.000000pt" viewBox="0 0 2048.000000 2048.000000"
 preserveAspectRatio="xMidYMid meet">

<g transform="translate(0.000000,2048.000000) scale(0.100000,-0.100000)"
fill="#2563eb" stroke="none">
<path d="M9230 14561 c0 -10 -98 -19 -285 -26 -71 -3 -186 -12 -255 -20 -69
-7 -177 -17 -240 -20 -147 -8 -419 -33 -429 -40 -5 -2 -50 -9 -102 -15 -51 -6
-116 -17 -144 -25 -27 -8 -68 -16 -90 -19 -87 -12 -121 -19 -135 -26 -8 -4
-50 -10 -92 -14 -147 -12 -393 -50 -503 -77 -22 -6 -78 -19 -125 -30 -47 -11
-112 -26 -145 -34 -33 -8 -85 -19 -115 -26 -30 -6 -77 -17 -105 -24 -27 -7
-70 -18 -95 -24 -76 -17 -131 -32 -230 -62 -52 -15 -113 -33 -135 -38 -135
-34 -412 -117 -436 -130 -8 -5 -51 -19 -95 -31 -99 -28 -211 -64 -289 -94 -33
-13 -82 -31 -110 -41 -27 -9 -86 -30 -130 -47 -44 -16 -119 -43 -166 -59 -48
-15 -102 -35 -120 -43 -19 -8 -72 -27 -119 -41 -47 -15 -103 -35 -125 -45 -22
-10 -60 -26 -85 -35 -44 -17 -79 -32 -190 -82 -30 -14 -68 -31 -85 -38 -16 -7
-65 -29 -107 -49 -43 -20 -80 -36 -83 -36 -7 0 -135 -57 -170 -76 -16 -9 -84
-45 -151 -79 -66 -35 -164 -89 -218 -119 -54 -31 -103 -56 -108 -56 -20 0
-314 -166 -513 -289 -60 -38 -133 -80 -161 -95 -54 -28 -332 -211 -417 -275
-29 -22 -99 -76 -157 -121 -58 -45 -116 -89 -130 -98 -107 -71 -150 -107 -150
-125 0 -16 5 -18 33 -13 18 3 60 20 92 38 125 66 232 117 260 123 17 4 80 30
140 60 61 29 191 92 290 139 99 48 189 92 200 98 41 24 205 103 350 168 51 23
244 115 405 193 69 33 156 71 193 84 37 13 76 28 85 33 31 17 94 40 111 40 10
0 38 13 64 30 26 16 78 39 115 51 37 11 83 27 102 36 63 28 205 83 215 83 6 0
28 9 49 19 21 11 52 23 69 26 18 4 46 13 62 20 17 7 64 25 105 40 41 15 103
38 138 51 34 13 69 24 78 24 8 0 34 9 57 19 24 11 56 23 72 26 17 4 57 17 90
29 68 26 166 57 370 116 189 56 223 66 275 84 25 8 115 31 200 51 85 19 166
40 179 46 13 5 51 16 85 24 34 7 131 30 216 50 85 20 191 42 235 50 44 8 157
31 250 50 238 50 317 65 415 80 192 28 309 47 383 61 42 8 92 14 111 14 18 0
46 4 62 10 16 5 93 16 172 25 79 8 147 17 153 20 5 4 87 11 182 16 94 5 199
16 232 24 33 8 103 15 155 15 53 0 147 6 210 14 277 35 1781 39 2045 6 44 -6
172 -15 285 -20 113 -6 241 -17 284 -25 43 -8 111 -15 151 -15 40 0 110 -6
156 -14 46 -8 125 -18 174 -21 50 -4 106 -10 125 -15 19 -5 73 -14 120 -20 47
-6 119 -17 160 -25 147 -28 296 -53 380 -65 47 -6 117 -18 155 -27 39 -8 106
-21 150 -28 44 -7 134 -25 200 -39 66 -14 133 -28 148 -30 31 -5 90 -18 187
-42 36 -9 94 -22 130 -29 36 -8 99 -23 140 -35 41 -11 104 -28 140 -36 188
-45 463 -118 525 -139 39 -13 113 -36 165 -50 52 -14 221 -68 375 -120 154
-53 300 -102 325 -110 25 -7 81 -27 125 -44 44 -16 118 -44 165 -61 47 -18 94
-37 104 -42 26 -14 134 -54 221 -83 39 -12 100 -37 137 -54 37 -17 75 -31 84
-31 9 0 28 -7 42 -15 25 -13 188 -90 257 -120 17 -7 76 -34 132 -59 56 -25
106 -46 110 -46 4 0 31 -11 58 -25 28 -13 55 -25 62 -25 6 0 42 -16 80 -35 37
-19 72 -35 77 -35 5 0 142 -67 305 -148 163 -82 319 -157 346 -167 28 -10 59
-26 70 -36 23 -20 133 -75 184 -94 51 -18 130 -55 171 -80 49 -31 166 -69 186
-61 13 5 0 18 -52 58 -38 28 -83 62 -100 77 -141 118 -181 146 -434 310 -47
31 -86 59 -88 63 -2 5 -10 8 -17 8 -7 0 -15 3 -17 8 -5 11 -62 49 -125 82 -32
17 -98 56 -148 86 -49 30 -103 61 -120 68 -16 7 -57 30 -89 51 -86 55 -276
160 -375 207 -47 23 -108 55 -136 71 -67 39 -358 188 -415 211 -25 11 -72 32
-105 47 -269 125 -393 180 -485 214 -41 16 -97 38 -125 51 -27 12 -77 30 -110
39 -33 10 -67 21 -75 25 -8 4 -26 12 -40 18 -14 5 -38 15 -55 22 -16 6 -64 23
-105 37 -41 14 -79 28 -85 33 -5 4 -28 13 -50 20 -22 6 -59 20 -82 31 -24 10
-48 19 -54 19 -6 0 -50 13 -98 29 -105 35 -216 70 -336 106 -49 14 -108 33
-130 40 -22 8 -58 17 -80 21 -22 4 -51 12 -65 19 -14 7 -48 16 -75 20 -28 4
-66 14 -85 21 -19 7 -53 18 -75 23 -22 5 -111 27 -198 50 -152 39 -227 57
-367 87 -170 36 -247 53 -270 62 -14 5 -81 17 -150 26 -250 34 -266 37 -530
88 -85 17 -189 35 -230 40 -41 4 -115 15 -165 23 -49 8 -155 19 -235 25 -80 6
-176 13 -215 16 -38 2 -131 11 -205 19 -74 8 -202 17 -285 20 -82 3 -184 11
-225 17 -92 13 -1650 22 -1650 9z"/>
<path d="M3980 11781 c-69 -27 -88 -42 -128 -100 l-37 -53 -3 -302 c-3 -288
-2 -304 16 -327 l20 -24 251 0 c227 0 252 2 268 18 16 16 18 43 18 305 0 325
-4 350 -66 417 -73 79 -228 110 -339 66z"/>
<path d="M15892 11785 c-88 -39 -159 -133 -164 -215 -1 -19 -1 -153 0 -297 2
-254 3 -264 23 -284 22 -22 25 -22 268 -15 233 6 247 8 264 27 15 18 17 45 18
198 1 451 3 432 -54 504 -48 62 -115 89 -227 94 -70 2 -104 -1 -128 -12z"/>
<path d="M4840 11628 c-163 -10 -267 -26 -297 -45 -22 -13 -23 -18 -23 -187 0
-222 -5 -213 146 -232 165 -20 210 -29 324 -70 58 -20 125 -37 150 -38 89 -2
258 16 555 59 55 8 144 19 197 25 54 5 160 19 235 31 76 12 183 27 239 33 55
7 105 15 110 19 6 3 44 10 85 16 90 12 486 79 514 87 11 3 53 20 93 37 59 26
72 36 70 52 -5 32 -164 80 -353 106 -38 5 -90 15 -115 20 -65 15 -279 37 -470
49 -91 5 -217 14 -280 19 -284 25 -936 35 -1180 19z"/>
<path d="M14570 11637 c-3 -2 -126 -7 -274 -11 -148 -3 -272 -8 -275 -11 -4
-2 -86 -9 -182 -15 -243 -15 -554 -48 -619 -65 -30 -8 -66 -15 -80 -15 -68 0
-300 -89 -300 -115 0 -19 123 -75 200 -90 36 -8 119 -21 185 -30 66 -8 167
-24 225 -34 58 -10 150 -26 205 -35 55 -9 125 -21 155 -27 30 -6 91 -15 135
-20 44 -5 91 -12 105 -15 14 -2 68 -9 120 -15 52 -5 140 -16 195 -23 55 -8
152 -20 215 -26 63 -7 126 -14 140 -16 14 -2 84 -7 155 -11 122 -5 135 -4 213
21 46 14 92 30 101 35 15 8 111 27 226 45 17 2 58 5 93 5 101 2 102 4 102 219
0 207 0 206 -90 217 -111 13 -126 14 -200 19 -114 8 -744 19 -750 13z"/>
<path d="M3395 11593 c-27 -1 -99 -7 -160 -13 -60 -5 -182 -15 -270 -20 -88
-6 -178 -15 -200 -20 -22 -5 -89 -12 -150 -15 -60 -3 -166 -12 -235 -20 -69
-8 -183 -19 -255 -25 -71 -6 -161 -15 -200 -20 -38 -5 -117 -14 -175 -20 -110
-11 -263 -31 -390 -49 -41 -6 -113 -15 -160 -20 -207 -23 -507 -85 -572 -117
-36 -18 -45 -51 -22 -74 26 -25 137 -57 254 -75 53 -8 126 -21 161 -29 35 -8
84 -17 109 -19 25 -3 117 -12 205 -21 88 -9 194 -20 235 -26 95 -13 148 -17
287 -25 61 -3 119 -7 130 -9 48 -9 169 -19 398 -31 55 -3 154 -10 220 -16 66
-6 183 -9 260 -7 l140 3 89 58 c49 32 121 71 160 86 103 41 270 81 355 85 107
5 104 0 98 233 -3 105 -8 197 -12 203 -6 10 -125 11 -300 3z"/>
<path d="M16402 11592 c-17 -11 -19 -397 -2 -416 5 -8 46 -16 90 -20 92 -7
294 -58 354 -88 22 -11 89 -50 149 -86 l107 -65 218 7 c119 3 242 8 272 11
195 17 310 25 373 25 40 0 88 4 107 10 19 5 109 14 200 19 156 10 343 29 510
52 41 5 113 14 160 19 47 6 99 15 115 21 17 5 50 13 75 16 67 8 217 41 255 57
40 17 52 48 31 81 -19 29 -41 36 -271 80 -99 20 -207 42 -240 50 -33 8 -96 17
-139 20 -44 3 -82 8 -85 10 -4 2 -54 9 -111 15 -58 6 -121 15 -140 20 -19 5
-73 12 -120 15 -47 3 -146 13 -220 21 -74 7 -197 18 -273 24 -76 5 -163 14
-195 19 -31 6 -115 15 -187 20 -71 6 -177 15 -235 20 -401 39 -775 59 -798 43z"/>
<path d="M9895 10999 c-49 -4 -128 -10 -175 -14 -47 -3 -105 -10 -130 -15
-109 -21 -332 -74 -415 -97 -49 -14 -99 -27 -110 -30 -11 -3 -24 -9 -30 -13
-5 -3 -39 -17 -75 -30 -80 -28 -298 -132 -359 -172 -131 -84 -162 -103 -226
-141 -38 -22 -83 -50 -100 -63 -60 -44 -133 -82 -173 -89 -22 -3 -771 -8
-1664 -10 -1384 -3 -1626 -1 -1645 11 -26 16 -30 40 -36 179 -8 187 -69 267
-242 317 -77 22 -91 23 -432 21 -373 -2 -412 -6 -488 -53 -40 -25 -98 -87
-120 -129 -8 -17 -20 -55 -26 -84 -13 -72 -13 -946 1 -1034 15 -93 51 -168
107 -220 87 -83 174 -113 321 -113 212 0 337 43 471 161 68 60 100 67 206 38
44 -11 150 -36 235 -56 85 -19 182 -41 215 -49 33 -7 85 -18 115 -24 30 -6 73
-17 95 -25 36 -12 81 -23 300 -72 39 -8 102 -24 140 -35 134 -38 374 -97 600
-148 44 -10 125 -30 180 -45 125 -34 194 -51 315 -76 181 -39 567 -136 593
-150 22 -13 22 -36 -2 -48 -10 -6 -49 -19 -87 -30 -38 -10 -100 -31 -139 -46
-38 -14 -117 -44 -175 -65 -58 -21 -159 -60 -225 -85 -66 -26 -147 -57 -180
-69 -33 -13 -69 -28 -80 -34 -11 -7 -51 -24 -90 -38 -146 -54 -231 -85 -260
-94 -16 -5 -55 -22 -85 -38 l-55 -29 0 -88 0 -89 43 -30 42 -30 138 34 c132
32 315 88 377 115 17 7 46 18 65 24 19 6 87 29 150 51 63 22 145 49 183 60 75
23 305 107 382 140 52 23 99 40 245 90 47 16 117 40 155 55 70 26 70 26 150
11 44 -8 109 -20 145 -26 94 -16 243 -52 254 -61 19 -17 -17 -38 -117 -69 -56
-18 -129 -42 -162 -55 -33 -12 -98 -34 -145 -49 -47 -14 -98 -31 -115 -37 -16
-6 -57 -19 -90 -29 -33 -10 -98 -31 -145 -48 -47 -16 -119 -40 -160 -53 -41
-12 -115 -38 -165 -57 -49 -18 -128 -45 -175 -59 -47 -13 -98 -31 -115 -38
-40 -19 -147 -59 -215 -80 -30 -9 -68 -23 -85 -30 -16 -8 -73 -28 -125 -45
-105 -34 -197 -69 -280 -107 -57 -26 -63 -26 -152 6 -151 55 -476 51 -627 -8
-99 -38 -151 -107 -176 -234 -16 -84 -13 -395 5 -466 32 -128 104 -210 226
-258 60 -24 83 -27 179 -27 139 -1 240 26 340 90 160 103 235 249 235 461 l0
93 33 20 c17 11 43 20 57 20 23 0 74 12 225 55 28 8 86 24 130 35 44 12 103
30 130 40 28 11 77 26 110 34 73 17 291 81 349 102 22 9 75 24 116 35 41 11
100 28 130 38 30 10 87 27 125 39 39 11 102 30 140 41 39 12 113 32 165 45 52
13 106 29 120 35 14 6 79 25 145 42 136 35 153 39 250 68 38 12 80 21 92 21
29 0 77 -42 129 -115 75 -102 235 -278 314 -343 102 -84 184 -136 320 -203
152 -75 227 -104 368 -142 l117 -31 275 0 c289 -1 339 5 515 61 45 14 188 72
225 92 156 83 203 113 330 213 89 70 217 210 297 326 108 156 108 156 191 135
31 -8 77 -21 102 -29 25 -9 74 -21 110 -29 77 -16 195 -46 265 -68 98 -31 231
-69 305 -88 41 -10 84 -23 95 -29 19 -10 132 -43 250 -74 28 -7 102 -29 165
-49 63 -19 165 -49 225 -67 99 -28 189 -55 370 -110 86 -26 244 -69 282 -76
57 -11 70 -37 77 -151 9 -151 40 -241 113 -325 76 -86 202 -162 320 -192 96
-24 287 -22 358 5 90 34 135 74 177 159 58 115 69 172 69 350 0 234 -18 298
-109 395 -43 46 -106 70 -246 95 -86 16 -303 8 -431 -16 -152 -28 -190 -29
-231 -5 -19 12 -40 21 -46 21 -7 0 -30 9 -52 19 -23 11 -124 47 -226 81 -102
33 -194 66 -204 72 -11 5 -44 19 -74 29 -30 10 -60 23 -66 28 -6 5 -28 12 -49
15 -41 6 -109 32 -193 72 -28 13 -60 24 -70 24 -10 0 -32 7 -49 16 -16 8 -59
23 -95 33 -36 10 -135 44 -220 75 -85 31 -177 63 -205 70 -140 39 -433 139
-463 157 -49 31 -21 48 133 79 55 12 140 27 188 36 85 14 90 14 135 -7 53 -23
198 -77 312 -115 74 -25 109 -38 141 -54 9 -5 104 -38 210 -74 107 -36 273
-93 369 -126 96 -34 189 -65 205 -69 17 -5 62 -21 100 -35 66 -24 266 -77 348
-91 48 -9 78 10 106 68 25 52 29 138 6 157 -29 24 -135 69 -366 155 -129 48
-250 93 -269 100 -36 15 -179 66 -305 111 -83 30 -150 54 -225 83 -30 11 -107
34 -170 52 -63 17 -121 36 -128 41 -19 16 14 48 49 48 16 0 48 6 71 14 92 31
381 103 543 136 28 6 70 16 95 24 69 22 279 74 565 141 110 26 212 52 226 57
15 5 53 15 85 22 33 7 113 27 179 44 66 16 158 38 205 47 47 10 103 24 125 32
36 13 117 32 230 53 22 4 94 22 160 39 218 59 339 82 385 74 29 -4 80 -30 200
-98 10 -6 24 -16 31 -22 74 -60 212 -93 388 -93 109 0 138 3 193 23 83 31 169
101 203 167 42 81 45 123 45 639 0 273 -4 515 -9 538 -12 61 -69 151 -119 187
-23 16 -68 41 -100 55 -57 25 -58 25 -362 26 -168 0 -334 -3 -370 -7 -116 -12
-232 -65 -274 -126 -42 -61 -53 -105 -71 -282 -9 -83 -17 -98 -61 -106 -19 -3
-776 -7 -1682 -7 l-1648 -1 -80 43 c-43 24 -90 53 -104 66 -75 67 -430 285
-465 285 -4 0 -19 8 -33 18 -88 60 -532 198 -745 231 -185 29 -483 43 -632 30z
m458 -394 c77 -8 176 -24 220 -35 216 -54 328 -87 405 -122 34 -15 67 -28 72
-28 5 0 53 -22 107 -48 103 -51 193 -107 408 -257 72 -50 151 -99 175 -109 43
-18 124 -19 1695 -21 908 -2 1826 -6 2041 -9 215 -3 408 -6 430 -6 21 0 46 -5
54 -10 25 -17 -3 -27 -129 -45 -64 -9 -159 -23 -211 -31 -52 -9 -138 -22 -190
-30 -52 -8 -131 -23 -175 -33 -44 -10 -98 -22 -120 -25 -22 -4 -110 -22 -195
-42 -237 -54 -324 -72 -460 -99 -69 -13 -138 -28 -155 -33 -16 -5 -66 -17
-110 -26 -99 -22 -226 -51 -325 -76 -41 -10 -100 -23 -130 -29 -81 -15 -454
-99 -545 -123 -43 -11 -123 -27 -250 -52 -44 -8 -93 -19 -110 -25 -50 -16
-247 -63 -300 -71 -28 -4 -77 -15 -110 -23 -88 -23 -234 -55 -280 -63 -22 -3
-92 -19 -155 -34 -63 -16 -149 -33 -190 -40 -41 -6 -104 -18 -139 -27 -61 -15
-65 -15 -78 3 -8 11 -21 44 -29 74 -52 188 -156 390 -297 575 -46 62 -202 208
-302 285 -100 76 -309 189 -398 214 -31 9 -81 23 -111 31 -91 26 -366 57 -439
50 -18 -2 -93 -9 -167 -16 -74 -7 -159 -21 -189 -31 -30 -10 -63 -18 -73 -18
-24 0 -235 -96 -309 -141 -154 -92 -291 -210 -396 -339 -15 -19 -36 -44 -47
-55 -30 -33 -103 -149 -144 -232 -42 -84 -122 -281 -143 -350 -6 -24 -21 -50
-31 -60 -16 -15 -23 -15 -51 -4 -60 24 -392 97 -527 116 -25 3 -54 10 -65 15
-21 9 -198 44 -275 55 -25 3 -58 10 -75 15 -16 4 -50 11 -74 15 -25 3 -65 12
-90 19 -48 14 -119 31 -401 91 -292 63 -435 94 -575 126 -49 11 -114 25 -143
29 -29 5 -76 15 -105 23 -58 17 -134 35 -282 67 -55 12 -127 28 -160 35 -317
72 -523 116 -650 140 -71 13 -166 31 -210 40 -44 8 -129 24 -190 36 -60 11
-123 24 -140 30 -16 5 -77 15 -135 23 -152 21 -278 43 -291 51 -6 4 -7 11 -2
15 14 15 814 22 2538 24 1492 2 1674 4 1706 18 31 14 112 64 219 138 14 9 41
25 60 35 19 10 86 52 149 93 246 161 643 298 976 336 164 19 457 19 618 1z
m-148 -745 c210 -24 443 -131 618 -284 90 -79 226 -256 281 -365 27 -53 72
-197 86 -274 19 -103 28 -276 19 -384 -16 -208 -109 -425 -251 -588 -92 -105
-247 -232 -333 -270 -16 -8 -41 -20 -55 -28 -24 -14 -124 -52 -200 -76 -19 -6
-53 -13 -75 -16 -55 -7 -340 -7 -395 0 -63 8 -199 43 -237 60 -17 8 -35 15
-40 15 -15 0 -129 64 -194 110 -98 67 -258 233 -317 327 -29 45 -52 85 -52 89
0 3 -13 33 -30 65 -29 58 -72 209 -85 303 -11 81 -6 276 9 362 34 192 102 354
204 492 58 79 183 208 238 246 173 117 188 126 307 165 179 59 310 72 502 51z"/>
<path d="M9905 9656 c-5 -3 -44 -14 -85 -27 -160 -48 -271 -119 -406 -262 -52
-55 -94 -104 -94 -108 0 -4 -19 -36 -42 -71 -26 -39 -49 -90 -60 -133 -40
-155 -67 -292 -63 -325 18 -174 66 -356 116 -446 68 -122 138 -221 190 -270
54 -51 130 -104 148 -104 5 0 31 -13 58 -29 26 -17 98 -47 158 -67 98 -33 124
-37 241 -41 111 -4 143 -2 210 16 99 26 211 66 233 83 9 7 32 22 51 33 71 39
183 132 230 191 57 71 106 152 162 266 53 109 79 353 53 503 -23 133 -34 163
-113 324 -96 192 -287 342 -555 433 -86 29 -103 31 -257 34 -91 2 -169 2 -175
0z m-143 -328 c15 -10 43 -37 62 -60 35 -40 36 -43 31 -112 -7 -105 -15 -144
-39 -189 -30 -57 -63 -78 -132 -83 -74 -6 -116 14 -159 74 -28 40 -30 50 -28
120 3 140 11 162 73 206 110 79 135 85 192 44z"/>
<path d="M5610 8169 c-19 -5 -92 -16 -163 -24 -70 -9 -138 -20 -151 -25 -13
-5 -53 -12 -88 -15 -80 -8 -387 -70 -451 -91 -52 -17 -117 -67 -117 -90 0 -20
60 -61 115 -77 131 -39 244 -50 525 -51 277 -1 399 10 445 39 19 11 20 22 19
164 -1 103 -6 156 -14 166 -14 16 -64 18 -120 4z"/>
<path d="M14379 8161 c-23 -18 -24 -26 -27 -170 l-4 -150 23 -5 c13 -3 56 -12
94 -20 98 -21 364 -29 530 -17 264 19 397 57 403 115 5 43 -29 71 -122 100
-172 53 -252 70 -531 111 -95 14 -222 35 -316 50 -17 3 -36 -2 -50 -14z"/>
<path d="M11600 7079 c-19 -4 -57 -12 -83 -18 -26 -6 -62 -21 -80 -35 -38 -29
-160 -87 -243 -115 -76 -27 -358 -99 -452 -117 -40 -7 -81 -18 -91 -24 -11 -5
-39 -10 -63 -10 -24 -1 -70 -8 -103 -16 -79 -21 -652 -32 -765 -14 -41 6 -91
13 -110 16 -83 12 -255 51 -375 84 -44 12 -102 27 -130 32 -27 6 -70 18 -95
28 -25 10 -61 21 -80 25 -35 7 -69 20 -145 54 -22 10 -65 30 -95 44 -156 71
-269 74 -270 8 0 -25 82 -94 173 -146 144 -83 222 -121 432 -215 100 -44 451
-137 554 -146 36 -3 71 -10 78 -16 32 -26 613 -33 763 -9 134 22 258 50 440
100 181 49 164 43 405 151 33 15 67 30 75 34 8 3 38 20 65 36 28 16 74 41 104
55 62 30 206 137 214 159 10 25 -3 46 -32 52 -48 10 -56 10 -91 3z"/>
<path d="M7828 6663 c-31 -33 -22 -64 30 -106 47 -38 250 -145 392 -207 41
-18 99 -43 128 -56 29 -13 55 -24 57 -24 3 0 44 -18 91 -40 47 -22 91 -40 97
-40 7 0 32 -9 56 -20 24 -12 90 -32 145 -46 56 -13 115 -31 131 -38 38 -16
153 -46 225 -57 30 -5 87 -15 125 -23 39 -8 97 -17 130 -20 33 -3 76 -10 95
-17 45 -14 756 -22 930 -9 146 10 289 31 415 59 206 47 231 53 250 61 32 13
54 20 155 46 114 30 260 78 315 104 96 45 154 70 161 70 8 0 85 35 124 55 14
8 63 33 110 56 47 24 96 50 110 60 14 9 62 40 106 70 99 64 110 79 85 111 -18
21 -27 23 -100 21 -59 -1 -94 -7 -126 -22 -25 -12 -48 -21 -52 -21 -17 0 -220
-87 -253 -108 -19 -12 -39 -22 -45 -22 -12 0 -112 -38 -140 -53 -11 -6 -38
-14 -60 -18 -22 -4 -76 -21 -120 -39 -44 -17 -90 -33 -103 -35 -13 -2 -28 -8
-35 -13 -7 -6 -43 -18 -81 -26 -38 -9 -74 -21 -80 -25 -6 -5 -40 -14 -74 -21
-35 -6 -74 -15 -86 -19 -12 -5 -41 -11 -66 -15 -25 -3 -61 -10 -80 -16 -19 -5
-54 -10 -77 -10 -23 0 -72 -7 -110 -17 -57 -14 -131 -16 -473 -17 -427 -1
-543 4 -678 28 -46 9 -87 15 -90 14 -15 -4 -117 14 -136 24 -11 6 -56 16 -100
23 -45 7 -101 20 -126 29 -25 9 -97 32 -159 52 -63 20 -133 44 -155 54 -23 10
-57 22 -76 25 -19 4 -45 13 -57 21 -12 8 -30 14 -39 14 -9 0 -38 11 -66 25
-27 14 -54 25 -60 25 -5 0 -52 20 -105 45 -52 25 -99 45 -104 45 -5 0 -26 9
-46 20 -21 11 -46 20 -56 20 -10 0 -32 7 -49 16 -18 9 -66 19 -107 21 -66 5
-78 3 -93 -14z"/>
</g>
</svg>
